HIERARCHY
ROOT Hips
{
	OFFSET 0.000000 89.005402 0.000000
	CHANNELS 6 Xposition Yposition Zposition Xrotation Yrotation Zrotation
	JOINT Spine
	{
		OFFSET 0.116900 10.681000 0.373400
		CHANNELS 3 Xrotation Yrotation Zrotation
		JOINT Spine1
		{
			OFFSET 0.000000 13.840401 0.053500
			CHANNELS 3 Xrotation Yrotation Zrotation
			JOINT Spine2
			{
				OFFSET 0.000000 14.712700 -0.366200
				CHANNELS 3 Xrotation Yrotation Zrotation
				JOINT Neck
				{
					OFFSET 0.000000 35.415497 -3.314200
					CHANNELS 3 Xrotation Yrotation Zrotation
					JOINT Head
					{
						OFFSET 0.000000 16.899200 1.218300
						CHANNELS 3 Xrotation Yrotation Zrotation
						JOINT HeadTop_End
						{
							OFFSET 0.000000 22.206207 2.192500
							CHANNELS 3 Xrotation Yrotation Zrotation
							End Site
							{
								OFFSET 0.000000 22.314178 0.000000
							}
						}
					}
				}
				JOINT LeftShoulder
				{
					OFFSET 12.896400 26.716293 -4.548400
					CHANNELS 3 Xrotation Yrotation Zrotation
					JOINT LeftArm
					{
						OFFSET 19.027000 -4.857010 -1.718400
						CHANNELS 3 Xrotation Yrotation Zrotation
						JOINT LeftForeArm
						{
							OFFSET 24.179897 0.000000 0.000000
							CHANNELS 3 Xrotation Yrotation Zrotation
							JOINT LeftHand
							{
								OFFSET 27.156403 0.000000 0.000000
								CHANNELS 3 Xrotation Yrotation Zrotation
								JOINT LeftHandIndex1
								{
									OFFSET 16.441200 0.000000 0.000000
									CHANNELS 3 Xrotation Yrotation Zrotation
									JOINT LeftHandIndex2
									{
										OFFSET 4.821899 0.000000 0.000000
										CHANNELS 3 Xrotation Yrotation Zrotation
										JOINT LeftHandIndex3
										{
											OFFSET 6.386497 0.000000 0.000000
											CHANNELS 3 Xrotation Yrotation Zrotation
											JOINT LeftHandIndex4
											{
												OFFSET 5.188988 0.000000 0.000000
												CHANNELS 3 Xrotation Yrotation Zrotation
												End Site
												{
													OFFSET -0.178703 5.185913 0.000177
												}
											}
										}
									}
								}
								JOINT LeftHandThumb1
								{
									OFFSET 6.534897 -5.032593 5.900300
									CHANNELS 3 Xrotation Yrotation Zrotation
									JOINT LeftHandThumb2
									{
										OFFSET 3.818176 -2.204422 2.204423
										CHANNELS 3 Xrotation Yrotation Zrotation
										JOINT LeftHandThumb3
										{
											OFFSET 3.252098 -1.877594 1.877601
											CHANNELS 3 Xrotation Yrotation Zrotation
											JOINT LeftHandThumb4
											{
												OFFSET 5.251778 -3.032120 3.032117
												CHANNELS 3 Xrotation Yrotation Zrotation
												End Site
												{
													OFFSET 0.000023 6.780014 0.000000
												}
											}
										}
									}
								}
							}
						}
					}
				}
				JOINT RightShoulder
				{
					OFFSET -12.896300 26.716293 -4.548400
					CHANNELS 3 Xrotation Yrotation Zrotation
					JOINT RightArm
					{
						OFFSET -19.027000 -4.857010 -1.718400
						CHANNELS 3 Xrotation Yrotation Zrotation
						JOINT RightForeArm
						{
							OFFSET -24.179897 0.000000 0.000000
							CHANNELS 3 Xrotation Yrotation Zrotation
							JOINT RightHand
							{
								OFFSET -27.156403 0.000000 0.000000
								CHANNELS 3 Xrotation Yrotation Zrotation
								JOINT RightHandThumb1
								{
									OFFSET -6.591202 -4.852203 5.988100
									CHANNELS 3 Xrotation Yrotation Zrotation
									JOINT RightHandThumb2
									{
										OFFSET -3.818176 -2.204422 2.204423
										CHANNELS 3 Xrotation Yrotation Zrotation
										JOINT RightHandThumb3
										{
											OFFSET -3.252098 -1.877594 1.877601
											CHANNELS 3 Xrotation Yrotation Zrotation
											JOINT RightHandThumb4
											{
												OFFSET -5.251778 -3.032120 3.032117
												CHANNELS 3 Xrotation Yrotation Zrotation
												End Site
												{
													OFFSET -0.000023 6.780014 0.000000
												}
											}
										}
									}
								}
								JOINT RightHandIndex1
								{
									OFFSET -16.029404 0.000000 0.000000
									CHANNELS 3 Xrotation Yrotation Zrotation
									JOINT RightHandIndex2
									{
										OFFSET -5.213303 0.000000 0.000000
										CHANNELS 3 Xrotation Yrotation Zrotation
										JOINT RightHandIndex3
										{
											OFFSET -6.386528 0.000000 0.000000
											CHANNELS 3 Xrotation Yrotation Zrotation
											JOINT RightHandIndex4
											{
												OFFSET -5.189026 0.000000 0.000000
												CHANNELS 3 Xrotation Yrotation Zrotation
												End Site
												{
													OFFSET 0.236702 5.183624 0.001972
												}
											}
										}
									}
								}
							}
						}
					}
				}
			}
		}
	}
	JOINT LeftUpLeg
	{
		OFFSET 14.073000 -7.904099 -1.463000
		CHANNELS 3 Xrotation Yrotation Zrotation
		JOINT LeftLeg
		{
			OFFSET -0.109806 -34.073280 4.093200
			CHANNELS 3 Xrotation Yrotation Zrotation
			JOINT LeftFoot
			{
				OFFSET 0.109806 -29.899420 -6.319000
				CHANNELS 3 Xrotation Yrotation Zrotation
				JOINT LeftToeBase
				{
					OFFSET 1.551100 -14.988700 20.535801
					CHANNELS 3 Xrotation Yrotation Zrotation
					JOINT LeftToe_End
					{
						OFFSET 0.221200 0.570800 13.248301
						CHANNELS 3 Xrotation Yrotation Zrotation
						End Site
						{
							OFFSET 0.000000 13.262435 0.000000
						}
					}
				}
			}
		}
	}
	JOINT RightUpLeg
	{
		OFFSET -13.839300 -7.904099 -1.463000
		CHANNELS 3 Xrotation Yrotation Zrotation
		JOINT RightLeg
		{
			OFFSET 0.109694 -34.073219 4.093300
			CHANNELS 3 Xrotation Yrotation Zrotation
			JOINT RightFoot
			{
				OFFSET -0.109694 -29.899384 -6.319200
				CHANNELS 3 Xrotation Yrotation Zrotation
				JOINT RightToeBase
				{
					OFFSET -1.551100 -14.988700 20.535801
					CHANNELS 3 Xrotation Yrotation Zrotation
					JOINT RightToe_End
					{
						OFFSET -0.221200 0.570900 13.248299
						CHANNELS 3 Xrotation Yrotation Zrotation
						End Site
						{
							OFFSET 0.000000 13.262440 0.000000
						}
					}
				}
			}
		}
	}
}
MOTION
Frames: 4
Frame Time: 0.033333
-1.731725 71.626038 1.111842 11.687167 -49.461686 11.396014 10.978443 2.787393 -2.155271 6.100703 5.566531 -4.284676 -5.786910 6.328134 -3.046186 2.319160 9.363350 -0.265550 -4.147102 23.161866 -3.523201 0.000001 -0.000000 -0.000000 -1.878316 -16.206548 -2.875573 -10.643406 2.188466 -45.501815 -22.862414 -25.786208 -15.871744 2.491070 -2.511912 6.860435 -1.232797 -5.771946 -0.192361 0.133942 -0.197628 -4.602122 0.055751 -0.448197 -7.568163 0.000000 0.000003 -0.000002 18.457953 -9.513769 13.216584 -1.150228 11.255347 -8.400859 5.706552 8.483105 -0.820707 -0.000000 0.000000 -0.000001 -5.077482 24.381696 1.487357 6.644607 -34.771885 57.611546 -21.031959 44.833826 19.961672 -0.087283 35.608525 7.474287 55.149529 18.649565 -29.698305 -0.442542 -14.180551 7.313161 21.666986 -29.244466 9.142360 -0.000000 0.000000 -0.000001 5.673389 7.585018 36.844158 1.050464 3.824497 68.900250 0.499582 3.026035 62.196447 -0.000002 -0.000001 0.000005 -64.946131 26.591159 44.239207 46.271239 -21.279813 3.025047 2.032151 1.396279 -11.917796 -0.918819 -6.110444 0.929431 -0.000000 0.000001 -0.000000 -29.521027 -0.236708 -29.199025 53.475327 5.069751 -6.102649 -30.609674 -5.338564 27.121288 0.528368 2.970053 1.471350 -0.000000 0.000003 -0.000000 
-1.716539 71.836861 1.198551 10.015006 -50.421720 10.605945 10.863728 2.439972 -1.738332 5.870773 5.300237 -4.199978 -5.928148 6.102852 -2.870921 2.027834 10.316774 -0.536247 -3.617262 23.678495 -4.565127 0.000001 -0.000000 0.000000 -1.827174 -15.122085 -3.017726 -10.540919 2.441048 -45.585236 -21.528169 -26.720622 -15.874900 2.307982 -2.749103 5.952946 -1.089456 -5.803018 -0.180849 0.373660 -0.217534 -4.612700 -0.157141 -0.386603 -7.282786 -0.000001 -0.000002 0.000000 18.139604 -9.838078 13.497103 -1.136237 11.202604 -8.318965 5.506729 8.111580 -0.853142 -0.000001 0.000001 -0.000002 -4.241682 21.430413 1.000330 6.278968 -34.792041 57.260666 -19.264880 45.694461 20.048661 7.832509 32.677012 -1.029752 55.149529 18.649567 -29.698305 -0.442542 -14.180550 7.313160 21.666982 -29.244473 9.142359 -0.000001 -0.000000 -0.000000 5.673391 7.585016 36.844158 1.050462 3.824501 68.900250 0.499582 3.026032 62.196447 0.000005 0.000003 -0.000003 -62.433304 26.904072 44.100213 45.805622 -20.518366 2.467378 1.550284 1.605939 -12.169528 -0.857102 -6.224935 0.931483 -0.000000 0.000001 0.000000 -28.183577 0.407779 -29.142023 53.127380 5.710868 -6.567967 -30.402688 -5.987830 27.036433 0.826739 2.922651 1.438213 -0.000000 0.000000 0.000000 
-1.672982 72.076485 1.448983 8.283014 -51.388711 9.716864 10.699702 1.754781 -1.156711 5.518924 4.419562 -3.852491 -6.172848 5.229578 -2.551918 1.987114 12.161653 -0.910372 -2.948292 24.429080 -6.305718 0.000000 -0.000000 -0.000000 -1.586362 -13.180823 -2.835268 -10.107632 3.369222 -45.727095 -18.685010 -28.292536 -15.333546 0.366978 -3.250156 4.188412 -0.815482 -5.858569 -0.271013 0.647730 -0.242498 -4.664519 -0.400524 -0.322144 -7.021828 0.000005 0.000002 -0.000001 17.772815 -10.226152 13.639607 -1.051944 11.180315 -8.196370 5.425921 7.828120 -0.916421 -0.000001 0.000002 0.000000 -3.107435 17.591635 0.598230 6.872123 -34.552684 55.960945 -18.346341 49.613384 23.733470 16.418081 27.034702 -9.788723 55.149533 18.649565 -29.698305 -0.442541 -14.180551 7.313159 21.666982 -29.244473 9.142361 -0.000000 0.000000 0.000000 5.673392 7.585018 36.844158 1.050460 3.824501 68.900250 0.499585 3.026032 62.196447 0.000002 0.000001 -0.000001 -59.958898 27.355983 43.978693 45.539019 -19.763934 1.930344 0.844190 1.764434 -12.262647 -0.752456 -6.360896 0.927640 -0.000000 0.000003 -0.000000 -26.636635 1.049714 -29.402800 52.446980 6.498255 -6.649840 -30.090945 -6.507523 26.915522 1.145493 2.850565 1.299144 -0.000000 0.000001 0.000000 
-1.583264 72.347702 1.868215 6.018183 -52.850809 8.485861 10.586685 0.777189 -0.428297 5.252220 2.988873 -3.267771 -6.325358 3.775207 -2.096268 2.139436 15.116742 -1.149713 -2.005778 26.045314 -9.551870 0.000001 0.000000 -0.000000 -1.242822 -10.155534 -2.487024 -9.287321 4.916288 -45.887625 -14.255489 -29.741492 -13.964545 -2.874265 -5.135714 1.454975 -0.471549 -5.928872 -0.415327 0.940346 -0.271604 -4.738199 -0.660563 -0.257245 -6.773913 -0.000004 0.000001 0.000003 17.379729 -10.649056 13.704455 -0.929529 11.174658 -8.051958 5.408946 7.592002 -0.995570 -0.000002 0.000001 -0.000000 -1.768844 12.215857 0.165361 6.811829 -32.865685 52.433631 -20.887839 56.764691 32.260305 24.278739 17.562163 -16.313178 55.149529 18.649567 -29.698308 -0.442542 -14.180549 7.313160 21.666981 -29.244473 9.142359 -0.000001 -0.000000 -0.000000 5.673392 7.585021 36.844158 1.050462 3.824506 68.900244 0.499585 3.026039 62.196454 0.000002 -0.000001 -0.000001 -56.722013 27.957030 43.773736 45.470437 -18.870337 1.418150 -0.302370 2.205393 -12.479098 -0.730964 -6.453970 0.940100 0.000000 -0.000002 0.000000 -24.742577 1.979887 -29.944294 51.484504 7.571246 -6.546027 -29.618265 -6.889692 26.807319 1.398882 2.761372 0.910627 0.000000 -0.000001 0.000000 
